#!OML:ASF X:\für Bonn\!DataBase\2005_08_12_Daniel\c3d\Daniel.ASF
:FULLY-SPECIFIED
:DEGREES
153
root 1.3688 16.4302 -18.9406 201.931 160.062 -168.877
lowerback 84.6215 -9.50945 12.7633
upperback 7.9157 1.75214 -3.47614
thorax -9.98395 1.64404 -9.66083
lowerneck 1.62567 -7.60477 -0.295724
upperneck 5.66617 -9.82809 -2.91593
head 1.34372 -4.84887 -0.906276
rclavicle -3.81667e-014 3.57812e-014
rhumerus 69.3717 -37.1464 -101.862
rradius 7.26824
rwrist 28.7051
rhand -38.6902 1.69322
rfingers 7.12502
rthumb -11.705 -27.9598
lclavicle -3.81667e-014 3.57812e-014
lhumerus -29.0523 -17.3312 94.0501
lradius 62.3027
lwrist 9.329
lhand -11.1168 -11.3495
lfingers 7.12502
lthumb 14.908 18.094
rfemur -58.3261 -10.55 4.50952
rtibia 61.7627
rfoot -20.78 -8.23157
rtoes -17.4546
lfemur -59.6578 -10.8722 -23.9944
ltibia 53.786
lfoot -11.6409 -13.8862
ltoes -8.49198
154
root 1.3589 16.4147 -18.9252 202.066 159.886 -168.802
lowerback 84.6565 -9.47508 12.7602
upperback 7.909 1.79209 -3.49883
thorax -9.98198 1.66636 -9.70579
lowerneck 1.48967 -7.63427 -0.0938779
upperneck 5.83586 -9.85848 -2.94401
head 1.40882 -4.8609 -0.957981
rclavicle -6.04305e-014 -1.98785e-014
rhumerus 69.2629 -37.0707 -102.01
rradius 7.50188
rwrist 27.812
rhand -39.3306 1.15737
rfingers 7.12502
rthumb -12.3224 -28.4595
lclavicle -6.04305e-014 -1.98785e-014
lhumerus -29.0167 -17.6055 94.0465
lradius 62.5328
lwrist 9.85921
lhand -11.1017 -11.2102
lfingers 7.12502
lthumb 14.9225 18.2322
rfemur -58.5485 -10.7283 4.55611
rtibia 62.119
rfoot -20.9718 -8.22847
rtoes -17.5157
lfemur -59.8992 -10.9289 -23.995
ltibia 54.0396
lfoot -11.7356 -14.0381
ltoes -8.46662
155
root 1.35003 16.3991 -18.9095 202.189 159.699 -168.748
lowerback 84.6912 -9.45771 12.7898
upperback 7.899 1.8417 -3.52338
thorax -9.97829 1.69243 -9.76803
lowerneck 1.33271 -7.67592 0.088395
upperneck 6.05037 -9.90407 -2.95688
head 1.49348 -4.88017 -1.00481
rclavicle -3.18055e-014 -9.54166e-015
rhumerus 69.1153 -37.036 -102.139
rradius 7.78285
rwrist 26.8433
rhand -40.0996 0.632487
rfingers 7.12502
rthumb -13.0638 -28.9384
lclavicle -3.18055e-014 -9.54166e-015
lhumerus -28.9832 -17.8566 94.0478
lradius 62.744
lwrist 10.2437
lhand -11.152 -11.0662
lfingers 7.12502
lthumb 14.8741 18.3798
rfemur -58.7509 -10.8965 4.61055
rtibia 62.4653
rfoot -21.17 -8.23311
rtoes -17.4979
lfemur -60.1333 -10.9971 -23.9691
ltibia 54.2959
lfoot -11.8267 -14.1725
ltoes -8.38338
156
root 1.34067 16.3834 -18.8944 202.33 159.514 -168.669
lowerback 84.7115 -9.42372 12.7965
upperback 7.88282 1.88958 -3.53366
thorax -9.98773 1.71454 -9.80469
lowerneck 1.26638 -7.71127 0.244448
upperneck 6.18287 -9.94516 -2.95663
head 1.53872 -4.89664 -1.03678
rclavicle 3.18055e-014 3.65764e-014
rhumerus 68.9268 -37.0581 -102.212
rradius 8.06699
rwrist 25.6832
rhand -40.9454 0.146052
rfingers 7.12502
rthumb -13.879 -29.3708
lclavicle 3.18055e-014 3.65764e-014
lhumerus -28.9611 -18.1099 94.0639
lradius 62.9554
lwrist 10.6797
lhand -11.183 -10.9178
lfingers 7.12502
lthumb 14.8441 18.5305
rfemur -58.9625 -11.0658 4.63955
rtibia 62.8034
rfoot -21.3594 -8.24855
rtoes -17.5616
lfemur -60.3773 -11.0681 -23.9673
ltibia 54.5369
lfoot -11.9099 -14.3198
ltoes -8.35124
157
root 1.33146 16.3685 -18.8786 202.449 159.329 -168.609
lowerback 84.727 -9.38886 12.8048
upperback 7.88798 1.9386 -3.54262
thorax -9.97146 1.74035 -9.83984
lowerneck 1.22925 -7.74999 0.359929
upperneck 6.28258 -9.99339 -2.91842
head 1.57237 -4.91654 -1.04851
rclavicle 9.54166e-015 -2.06736e-014
rhumerus 68.758 -37.0283 -102.32
rradius 8.367
rwrist 24.3968
rhand -41.9424 -0.307284
rfingers 7.12502
rthumb -14.8396 -29.7559
lclavicle 9.54166e-015 -2.06736e-014
lhumerus -28.9113 -18.3458 94.0698
lradius 63.1487
lwrist 11.0392
lhand -11.2645 -10.8299
lfingers 7.12502
lthumb 14.7657 18.6242
rfemur -59.1498 -11.211 4.68668
rtibia 63.1344
rfoot -21.549 -8.27463
rtoes -17.5894
lfemur -60.5971 -11.0991 -23.9633
ltibia 54.7731
lfoot -11.9764 -14.5128
ltoes -8.24195
158
root 1.32302 16.3549 -18.8627 202.562 159.145 -168.556
lowerback 84.7324 -9.33711 12.7907
upperback 7.89671 1.9874 -3.53292
thorax -9.95541 1.76358 -9.84398
lowerneck 1.18675 -7.77186 0.438361
upperneck 6.37908 -10.02 -2.87505
head 1.60843 -4.92658 -1.05298
rclavicle 2.22639e-014 1.82882e-014
rhumerus 68.532 -36.9877 -102.391
rradius 8.725
rwrist 22.9631
rhand -43.0476 -0.635801
rfingers 7.12502
rthumb -15.9042 -30.0027
lclavicle 2.22639e-014 1.82882e-014
lhumerus -28.869 -18.5075 94.0921
lradius 63.3348
lwrist 11.3342
lhand -11.3691 -10.7866
lfingers 7.12502
lthumb 14.6649 18.6748
rfemur -59.3167 -11.344 4.72719
rtibia 63.4479
rfoot -21.7482 -8.30726
rtoes -17.6469
lfemur -60.7992 -11.1481 -23.95
ltibia 54.9983
lfoot -12.0484 -14.6691
ltoes -8.13748
